<?xml version="1.0" encoding="iso-8859-1"?>
<!-- Generator: Adobe Illustrator 19.0.0, SVG Export Plug-In . SVG Version: 6.00 Build 0)  -->
<svg version="1.1" id="Capa_1" xmlns="http://www.w3.org/2000/svg" xmlns:xlink="http://www.w3.org/1999/xlink" x="0px" y="0px"
	 viewBox="0 0 512.085 512.085" style="enable-background:new 0 0 512.085 512.085;" xml:space="preserve">
<g>
	<path style="fill:#F8B64C;" d="M181.28,168.97c1.664,19.147-7.627,35.605-20.747,36.747c-13.141,1.152-25.152-13.44-26.837-32.587
		c-1.664-19.147,7.627-35.595,20.757-36.747C167.584,135.231,179.594,149.823,181.28,168.97"/>
	<path style="fill:#F8B64C;" d="M378.677,173.141c-1.675,19.147-13.685,33.739-26.816,32.587
		c-13.141-1.152-22.443-17.6-20.757-36.747c1.675-19.147,13.675-33.739,26.827-32.587
		C371.05,137.535,380.341,153.994,378.677,173.141"/>
</g>
<path style="fill:#40596B;" d="M512.042,406.687v105.397h-512V406.687c0-20.363,12.48-38.709,31.467-46.069l54.4-21.44l40.747-16
	l34.123-13.451l19.52-7.669l0.224,0.107h0.107c0.32,0.416,0.64,0.853,0.971,1.269h0.107v0.107c2.016,2.784,4.16,5.333,6.293,7.787
	c18.24,19.947,43.083,29.877,68.053,29.877c25.077,0,50.24-10.027,68.363-30.08c2.144-2.453,4.267-4.917,6.187-7.691
	c0,0,0.117,0,0.117-0.107c0.32-0.309,0.533-0.747,0.853-1.163h0.107l0.117-0.107l19.733,7.776l34.016,13.333l40.747,16l54.4,21.44
	C499.562,368.085,512.042,386.325,512.042,406.687"/>
<g>
	<path style="fill:#334A5E;" d="M413.845,430.922c0,0-13.749,35.829-49.163,81.163h-83.829c1.589-4.053,3.307-8.213,5.003-12.267
		c3.744-8.96,7.787-17.813,12.171-25.92c0,0,24.107-49.28,32.427-105.813c1.493-9.504,2.443-19.211,2.773-29.024
		c0.533-11.936,0-24.107-1.92-35.733c-0.96-6.187-2.347-12.267-4.16-18.123c0,0,82.347,100.683,86.709,119.776
		c0,0-39.669,14.613-55.147,8.107C358.698,413.098,370.869,431.765,413.845,430.922"/>
	<path style="fill:#334A5E;" d="M232.629,512.085h-83.84c-35.307-45.333-49.067-81.163-49.067-81.163
		c42.88,0.843,55.04-17.824,55.04-17.824c-15.36,6.507-55.04-8.107-55.04-8.107c4.267-19.093,86.613-119.776,86.613-119.776
		c-1.824,5.973-3.2,12.043-4.16,18.229c-1.931,11.627-2.453,23.691-1.931,35.627c0.32,9.813,1.28,19.52,2.784,29.024
		c8.309,56.533,32.416,105.813,32.416,105.813c4.48,8.309,8.651,17.28,12.373,26.453
		C229.536,504.287,231.029,508.138,232.629,512.085"/>
</g>
<path style="fill:#CDD6E0;" d="M332.629,339.061c-0.32,9.813-1.28,19.52-2.773,29.024c-8.32,56.533-32.427,105.813-32.427,105.813
	c-4.373,8.107-8.427,16.96-12.171,25.92c-0.416,1.173-0.96,2.251-1.376,3.413c-1.291,2.976-2.453,5.984-3.627,8.853h-48.213
	c-1.28-3.211-2.443-6.293-3.84-9.397c-0.309-0.736-0.64-1.589-0.96-2.336c-3.733-9.173-7.893-18.144-12.373-26.453
	c0,0-24.107-49.28-32.416-105.813c-1.504-9.504-2.453-19.211-2.784-29.024c-0.533-11.936,0-24,1.931-35.627h0.107v0.107
	c2.016,2.784,4.16,5.333,6.293,7.787c18.24,19.947,43.083,29.877,68.053,29.877c25.077,0,50.24-10.027,68.363-30.08
	c2.144-2.453,4.267-4.917,6.187-7.691c0,0,0.117,0,0.117-0.107C332.629,314.954,333.152,327.125,332.629,339.061"/>
<path style="fill:#54C0EB;" d="M271.402,417.247l12.48,85.984c-1.291,2.976-2.453,5.984-3.627,8.853h-48.213
	c-1.28-3.211-2.443-6.293-3.84-9.397l12.267-85.44l-7.349-5.973c-0.853-5.867-0.651-11.627-1.077-16.736
	c-0.32-4.064-1.173-7.691-3.52-10.56c-3.627-4.587-6.507-7.467-6.507-7.467l10.133-2.891l10.987-3.829l12.789-4.48l13.227,4.587
	l10.773,3.733l10.144,2.891c0,0-2.891,2.891-6.507,7.467c-2.24,2.88-3.2,6.4-3.52,10.229c-0.64,5.227-0.32,11.104-1.28,17.077
	L271.402,417.247z"/>
<path style="fill:#F8B64C;" d="M180.48,312.714v-0.021l0.032,0.021l0.011-0.021v0.021c18.944,25.109,47.285,52.608,75.595,52.608
	c28.32,0,56.651-27.488,75.605-52.587l0.043-0.043v0.021v-55.392H180.437v55.413L180.48,312.714z"/>
<path style="fill:#FFD15C;" d="M366.592,109.823v36.267c0,0.64,0,1.387-0.117,2.027c0.117,0.533,0,0.96,0,1.493
	c0,0.64,0,1.387-0.107,2.027c-0.117,5.867-0.533,11.627-1.28,17.387c0,0.107,0,0.32-0.107,0.427c-0.32,2.88-0.747,5.653-1.173,8.533
	c-1.696,9.493-3.84,18.88-6.72,27.947c-9.067,28.907-24.309,55.573-44.907,78.08l-10.56,11.52
	c-9.589,10.56-23.253,16.523-37.557,16.523h-16c-14.176,0-27.829-6.069-37.44-16.523l-10.443-11.52
	c-14.613-15.893-26.56-34.027-35.403-53.333c-7.691-16.533-13.12-34.027-16.117-52.171c-0.533-2.88-0.853-5.76-1.28-8.64
	c0-0.32-0.107-0.533-0.107-0.853c-0.747-5.653-1.163-11.52-1.28-17.28v-1.173c0-0.107-0.107-0.107-0.107-0.213
	c-0.117-0.747-0.117-1.493-0.117-2.24v-2.027c-0.107-0.853-0.107-1.6-0.107-2.453v-33.173c0-6.08,0.544-12.053,1.6-17.92v-0.32
	c0.651-4.16,1.504-8.107,2.667-12.053c1.28-4.587,2.88-9.067,4.789-13.333C171.573,27.573,210.613,0.053,256.17,0.053
	c45.333,0,84.373,27.413,101.216,66.56c1.931,4.373,3.52,8.853,4.917,13.547c1.163,3.947,2.123,7.893,2.773,12.053v0.32
	C366.048,98.207,366.592,103.967,366.592,109.823"/>
<g style="opacity:0.1;">
	<g>
		<path style="fill:#40596B;" d="M312.245,283.999l-10.56,11.52c-9.589,10.56-23.253,16.533-37.547,16.533h-16
			c-6.891,0-13.643-1.493-19.893-4.171l61.397,46.005c16.277-10.88,28.32-23.264,41.653-40.672c0.16-0.203,0.277-0.352,0.427-0.555
			l0.043-54.123C325.856,267.434,319.509,276.053,312.245,283.999"/>
	</g>
</g>
<path style="fill:#54C0EB;" d="M290.069,376.511c0,0-2.891,2.891-6.507,7.467c-2.24,2.88-3.2,6.4-3.52,10.229
	c-9.707-6.496-18.347-12.363-23.776-16c-5.451,3.637-14.411,9.6-24.224,16.331c-0.32-4.064-1.173-7.691-3.52-10.56
	c-3.627-4.587-6.507-7.467-6.507-7.467l10.133-2.891l10.987-3.829l12.789-4.48l13.227,4.587l10.773,3.733L290.069,376.511z"/>
<g>
	<path style="fill:#F2F2F2;" d="M256.117,365.311c-28.288,0-56.576-27.435-75.52-52.523c-5.333,44.501,10.773,96.213,10.773,96.213
		s61.024-41.205,65.013-43.691h-0.021C256.277,365.311,256.202,365.311,256.117,365.311"/>
	<path style="fill:#F2F2F2;" d="M331.765,311.317v1.397v-0.043l-0.043,0.064c-18.944,25.088-47.285,52.597-75.605,52.587
		c4,2.475,65.024,43.691,65.024,43.691S337.642,356.149,331.765,311.317"/>
</g>
<path style="fill:#40596B;" d="M366.592,139.669c0,0-22.101,2.805-25.227-27.584c0,0,9.568-34.741-16.107-43.307
	c0,0-42.795,59.872-113.579,59.872c-19.104,0-52.224-19.371-65.941,16.853c0,0-5.856-5.728-5.451-17.707
	c0,0-9.419-38.763-6.784-46.325c9.12-26.144,23.979-60.661,99.349-79.136c0,0,116.203-19.008,128.288,51.435
	c0,0,21.547,0.949,14.016,48.021C375.178,101.791,381.12,125.322,366.592,139.669"/>
<g>
</g>
<g>
</g>
<g>
</g>
<g>
</g>
<g>
</g>
<g>
</g>
<g>
</g>
<g>
</g>
<g>
</g>
<g>
</g>
<g>
</g>
<g>
</g>
<g>
</g>
<g>
</g>
<g>
</g>
</svg>
