<?xml version="1.0" encoding="iso-8859-1"?>
<!-- Generator: Adobe Illustrator 19.0.0, SVG Export Plug-In . SVG Version: 6.00 Build 0)  -->
<svg version="1.1" id="Capa_1" xmlns="http://www.w3.org/2000/svg" xmlns:xlink="http://www.w3.org/1999/xlink" x="0px" y="0px"
	 viewBox="0 0 512.555 512.555" style="enable-background:new 0 0 512.555 512.555;" xml:space="preserve">
<path style="fill:#F2F2F2;" d="M237.547,512.256H0l0.587-76.661c0.117-18.272,10.816-34.784,27.456-42.464l150.411-83.445
	L237.547,512.256z"/>
<polygon style="fill:#CDD6E0;" points="117.493,345.888 157.163,414.421 120.864,449.547 172.64,512.256 237.536,512.256 
	178.432,309.685 "/>
<path style="fill:#F2F2F2;" d="M512.555,512.256H274.997l60.043-202.517l149.493,83.392c16.64,7.68,27.445,24.192,27.563,42.464
	L512.555,512.256z"/>
<polygon style="fill:#CDD6E0;" points="335.04,309.739 275.008,512.256 339.925,512.256 391.68,449.547 355.392,414.421 
	395.179,345.899 "/>
<rect x="256.267" y="359.296" style="fill:#FFD15C;" width="0.043" height="0.053"/>
<g>
	<polygon style="fill:#54C0EB;" points="333.515,313.28 333.515,313.365 333.6,313.387 	"/>
	<path style="fill:#54C0EB;" d="M276.64,352.843h-0.224c-5.579,1.28-11.755,2.091-18.272,2.208
		c-53.493-1.013-78.496-43.008-79.701-45.376l59.104,202.581h37.461l60.011-202.453C332.459,314.549,314.965,344.491,276.64,352.843
		"/>
	<polygon style="fill:#54C0EB;" points="333.515,324.907 333.515,324.992 333.6,325.024 	"/>
	<polygon style="fill:#54C0EB;" points="178.827,325.088 179.147,324.939 179.147,324.811 179.104,324.811 	"/>
</g>
<g>
	<path style="fill:#ACB3BA;" d="M372.235,308.309c-0.128,0.128-0.256,0.128-0.256,0.128v-0.256
		C372.107,308.181,372.235,308.309,372.235,308.309"/>
	<path style="fill:#ACB3BA;" d="M372.757,308.181v0.256c0,0-0.139,0-0.256-0.128C372.501,308.309,372.619,308.181,372.757,308.181"
		/>
</g>
<path style="fill:none;stroke:#ACB3BA;stroke-linecap:round;stroke-linejoin:round;stroke-miterlimit:10;" d="M45.845,499.467
	H27.477v-54.325c0-23.829,19.328-43.157,43.168-43.157c23.819,0,43.147,19.328,43.147,43.157v54.325H95.413"/>
<g>
	<path style="fill:#CDD6E0;" d="M54.485,507.968h-9.195c-4.299,0-7.787-3.488-7.787-7.787v-1.419c0-4.299,3.488-7.776,7.787-7.776
		h9.195V507.968z"/>
	<path style="fill:#CDD6E0;" d="M95.904,507.968h-9.195v-16.992h9.195c4.299,0,7.776,3.488,7.776,7.776v1.419
		C103.68,504.48,100.203,507.968,95.904,507.968"/>
</g>
<path style="fill:#ACB3BA;" d="M335.04,297.749v11.989c54.08,13.92,93.045,62.635,93.045,120.043c0,3.221,2.592,5.824,5.813,5.824
	c3.211,0,5.813-2.603,5.813-5.824C439.701,365.963,395.723,311.947,335.04,297.749"/>
<path style="fill:#CDD6E0;" d="M460.811,461.92c0,15.701-12.725,28.437-28.437,28.437c-15.712,0-28.437-12.736-28.437-28.437
	c0-15.701,12.725-28.437,28.437-28.437C448.085,433.483,460.811,446.229,460.811,461.92"/>
<path style="fill:#40596B;" d="M449.888,461.92c0,9.675-7.829,17.536-17.525,17.536c-9.675,0-17.525-7.851-17.525-17.536
	c0-9.675,7.84-17.525,17.525-17.525C442.059,444.405,449.888,452.256,449.888,461.92"/>
<path style="fill:#ACB3BA;" d="M178.432,297.12v12.565l-60.021,25.472c-25.952,11.051-42.688,36.416-42.688,64.565
	c0,3.264-2.56,5.824-5.835,5.824c-3.136,0-5.813-2.56-5.813-5.824c0-32.8,19.541-62.347,49.792-75.264L178.432,297.12z"/>
<g>
	<path style="fill:#F8B64C;" d="M157.387,162.773c4.629,19.797,2.187,37.28-5.44,39.061c-7.627,1.771-17.547-12.832-22.165-32.619
		c-4.619-19.797-2.187-37.28,5.451-39.061C142.859,128.384,152.779,142.987,157.387,162.773"/>
	<path style="fill:#F8B64C;" d="M335.019,275.371v34.379c0,0-17.355,37.451-59.584,47.253H275.2
		c-5.653,1.387-11.925,2.261-18.528,2.389c-55.797-1.131-78.229-49.643-78.229-49.643v-33.984
		c10.027,7.787,21.355,14.123,33.632,18.016c1.771,0.629,3.531,1.131,5.301,1.643c9.323,2.763,18.997,4.139,29.141,4.139h20.288
		C292.309,299.563,315.787,290.197,335.019,275.371"/>
</g>
<g style="opacity:0.1;">
	<g>
		<path style="fill:#40596B;" d="M335.019,275.371v34.379c0,0-17.355,37.451-59.584,47.253H275.2l-57.824-61.579
			c9.323,2.763,18.997,4.139,29.141,4.139h20.288C292.309,299.563,315.787,290.197,335.019,275.371"/>
	</g>
</g>
<rect x="256.704" y="359.307" style="fill:#FFD15C;" width="0.032" height="0.043"/>
<path style="fill:#F8B64C;" d="M355.797,162.773c-4.619,19.797-2.176,37.28,5.451,39.061c7.627,1.771,16.192-13.195,22.155-32.619
	c3.563-11.595,1.931-35.296-5.44-39.061C370.987,126.592,360.416,142.987,355.797,162.773"/>
<path style="fill:#FFD15C;" d="M365.845,220.299c-32.053,101.707-108.853,109.419-108.853,109.419s-76.789-7.712-108.853-109.419
	c0,0-17.141-53.045-2.763-97.259c0,0,8.8-75.424,111.616-75.424s111.627,75.424,111.627,75.424
	C383.008,167.253,365.845,220.299,365.845,220.299"/>
<path style="fill:#40596B;" d="M397.749,130.496c-5.397-60.779-50.581-111.179-109.92-125.408
	c-31.488-7.552-59.573-5.141-81.461,0.139c-35.104,8.469-65.835,31.232-81.397,63.829c-29.995,62.837,10.976,117.291,10.976,117.291
	c13.397,72.672,4.384,79.125,4.384,79.125c-33.92,58.517,18.656,77.173,18.656,77.173c35.989,5.952,70.4-15.264,70.4-15.264
	l11.605-1.557c-49.696-16.139-94.912-73.472-97.291-137.632c0,0-5.205-33.867,10.421-44.277c0,0,19.584-8.416,26.091-76.128
	c0,0,21.44,49.429,65.717,59.2c44.267,9.76,56.651,18.229,56.651,18.229s45.579,28,53.397,91.808c0,0-11.851,65.216-88,90.357
	h12.288c61.92,24.587,67.435,23.947,78.912,11.68c25.227-26.976-3.403-46.955-3.403-46.955
	C393.248,224.971,401.355,170.965,397.749,130.496"/>
<g>
</g>
<g>
</g>
<g>
</g>
<g>
</g>
<g>
</g>
<g>
</g>
<g>
</g>
<g>
</g>
<g>
</g>
<g>
</g>
<g>
</g>
<g>
</g>
<g>
</g>
<g>
</g>
<g>
</g>
</svg>
