<?xml version="1.0" encoding="iso-8859-1"?>
<!-- Generator: Adobe Illustrator 19.0.0, SVG Export Plug-In . SVG Version: 6.00 Build 0)  -->
<svg version="1.1" id="Capa_1" xmlns="http://www.w3.org/2000/svg" xmlns:xlink="http://www.w3.org/1999/xlink" x="0px" y="0px"
	 viewBox="0 0 511.424 511.424" style="enable-background:new 0 0 511.424 511.424;" xml:space="preserve">
<g>
	<path style="fill:#ACB3BA;" d="M255.936,321.504c-0.128,0.128-0.224,0.128-0.224,0.128v-0.245
		C255.808,321.376,255.936,321.504,255.936,321.504"/>
	<path style="fill:#ACB3BA;" d="M255.936,321.387v0.224c0,0-0.128,0-0.224-0.107C255.712,321.504,255.808,321.387,255.936,321.387"
		/>
</g>
<g>
	<path style="fill:#F8B64C;" d="M186.379,283.317c0.853,1.163,0.736,1.163-0.117,0H186.379z"/>
	<path style="fill:#F8B64C;" d="M186.251,149.195c1.579,17.856-7.104,33.227-19.36,34.293
		c-12.256,1.077-23.467-12.544-25.024-30.421c-1.568-17.867,7.104-33.227,19.36-34.293
		C173.493,117.696,184.683,131.317,186.251,149.195"/>
	<path style="fill:#F8B64C;" d="M369.781,153.067c-1.568,17.877-12.757,31.499-25.035,30.421
		c-12.245-1.067-20.939-16.427-19.349-34.293c1.557-17.877,12.757-31.488,25.024-30.421
		C362.677,119.84,371.349,135.211,369.781,153.067"/>
</g>
<path style="fill:#ACB3BA;" d="M446.475,326.965l-121.12-43.648l0,0l-0.011,0.021c0,0-0.779,0.96-0.779,0.853
	c-17.067,23.125-42.859,34.539-68.768,34.549h-0.021c-0.021,0-0.021,0-0.021,0c-25.824-0.011-51.627-11.424-68.789-34.549
	l-0.661-0.832l-0.043-0.021L64.939,326.965c-37.867,13.547-63.253,49.589-63.253,89.92v94.539h508.053v-94.539
	C509.739,376.555,484.352,340.501,446.475,326.965"/>
<path style="fill:#FFD15C;" d="M255.819,0c-56.928,0-103.083,46.144-103.083,103.083v30.933c0,7.904,0.491,15.787,1.472,23.616
	v0.032c4.885,40.043,22.133,77.557,49.355,107.339l9.771,10.72c8.981,9.845,21.675,15.445,34.997,15.445h14.933
	c13.312,0,26.005-5.589,34.997-15.424l9.813-10.741c27.211-29.771,44.459-67.339,49.397-107.36
	c0.981-7.861,1.429-15.712,1.429-23.616v-30.933C358.901,46.155,312.747,0,255.819,0"/>
<path style="fill:#F8B64C;" d="M345.579,290.613c-0.331,1.077-0.747,2.133-1.291,3.093c-0.309,0.747-0.736,1.387-1.163,2.016
	c-1.173,1.931-29.76,45.227-87.467,45.227c-57.28,0-86.187-43.307-87.36-45.109c-1.067-1.707-1.92-3.413-2.347-5.227l20.267-7.264
	V243.04h0.107c5.227,7.691,10.891,15.04,17.28,21.984l9.707,10.667c8.96,9.92,21.643,15.456,34.976,15.456h14.933
	c13.333,0,26.016-5.547,34.987-15.349l9.813-10.773c6.411-6.933,12.053-14.293,17.28-21.984v40.309L345.579,290.613z"/>
<path style="fill:#F2F2F2;" d="M381.621,303.627c-1.067,2.133-2.123,3.84-3.083,5.227c-6.933,10.357-46.293,64.107-122.891,64.107
	c-79.147,0-118.923-58.016-123.2-64.64c-0.96-1.589-1.92-3.2-2.667-4.693l36.171-13.013c0.416,1.813,1.269,3.52,2.336,5.227
	c1.173,1.813,30.08,45.109,87.36,45.109c57.707,0,86.304-43.307,87.467-45.227c0.427-0.64,0.853-1.269,1.163-2.016
	c0.544-0.96,0.96-2.016,1.291-3.093L381.621,303.627z"/>
<g style="opacity:0.1;">
	<g>
		<path style="fill:#40596B;" d="M325.312,243.061c-5.205,7.669-10.923,15.029-17.237,21.941l-9.803,10.741
			c-9.003,9.835-21.685,15.424-35.008,15.424h-14.923c-12.352,0-24.043-5.003-32.853-13.557h-0.021l66.432,60.096
			c40.139-10.037,60.256-40.373,61.237-41.973c0.427-0.64,0.853-1.28,1.163-2.027c0.544-0.96,0.96-2.016,1.291-3.083l-20.267-7.264
			v-40.299H325.312z"/>
	</g>
</g>
<g>
	<polygon style="fill:#97A1AA;" points="106.827,511.424 82.72,511.424 106.827,424.565 	"/>
	<polygon style="fill:#97A1AA;" points="404.597,511.424 428.704,511.424 404.597,424.565 	"/>
</g>
<g>
	<path style="fill:#40596B;" d="M358.496,150.539l-16.907,63.627l-23.307,25.365c-2.624-7.157-8.629-13.227-15.936-18.293
		c-27.733-19.221-65.419-19.232-93.12,0.021c-7.275,5.067-13.248,11.125-15.872,18.272l-22.976-24.64l-17.227-64.352l3.712,38.741
		c6.176,36.704,28.704,101.557,62.293,117.621c11.061,5.301,23.403,8.864,36.64,8.864c13.312,0,25.653-3.563,36.715-8.864
		c33.568-16.064,56.107-80.917,62.293-117.621L358.496,150.539z M294.773,267.051c0,0-8.395,14.976-23.36,0
		c0,0-7.797-8.981-15.584-9.568c-7.776,0.597-15.584,9.568-15.584,9.568c-14.976,14.976-23.36,0-23.36,0
		c-3.456-7.093-3.936-12.693-2.912-17.056c1.899-8.128,9.749-13.269,18.037-12.544c15.168,1.355,23.819-8.736,23.819-8.736
		s8.661,10.091,23.819,8.736c8.288-0.725,16.149,4.416,18.027,12.544C298.709,254.357,298.229,259.957,294.773,267.051"/>
	<path style="fill:#40596B;" d="M313.664,122.603h-24.725c-12.192,0-22.443,7.851-26.251,18.741
		c-2.475-0.437-5.003-0.747-7.563-0.747c-2.101,0-4.171,0.299-6.208,0.619c-3.851-10.827-14.069-18.603-26.208-18.603h-24.725
		c-15.413,0-27.925,12.501-27.925,27.915c0,15.435,12.512,27.957,27.936,27.957h24.715c15.413,0,27.915-12.523,27.915-27.936v-0.021
		c0-0.651-0.149-1.269-0.192-1.92c3.584-0.501,7.211-0.491,10.752,0.128c-0.032,0.608-0.181,1.173-0.181,1.792
		c0,15.435,12.512,27.957,27.947,27.957h24.704c15.413,0,27.925-12.523,27.925-27.936v-0.021
		C341.589,135.104,329.077,122.603,313.664,122.603 M222.688,170.485h-24.693c-10.987,0-19.936-8.96-19.936-19.936
		c0-10.987,8.949-19.936,19.925-19.936h24.704c10.997,0,19.936,8.949,19.936,19.936
		C242.624,161.525,233.685,170.485,222.688,170.485 M313.664,170.485H288.96c-10.997,0-19.947-8.96-19.947-19.936
		c0-10.987,8.939-19.936,19.925-19.936h24.725c10.976,0,19.915,8.949,19.915,19.936C333.579,161.525,324.64,170.485,313.664,170.485
		"/>
</g>
<g>
</g>
<g>
</g>
<g>
</g>
<g>
</g>
<g>
</g>
<g>
</g>
<g>
</g>
<g>
</g>
<g>
</g>
<g>
</g>
<g>
</g>
<g>
</g>
<g>
</g>
<g>
</g>
<g>
</g>
</svg>
