<svg width="254" height="258" viewBox="0 0 254 258" fill="none" xmlns="http://www.w3.org/2000/svg">
<path d="M96.256 143.104V220H79.12V210.208C76.24 213.664 72.64 216.352 68.32 218.272C64 220.096 59.344 221.008 54.352 221.008C44.08 221.008 35.968 218.176 30.016 212.512C24.16 206.752 21.232 198.256 21.232 187.024V143.104H39.232V184.576C39.232 191.488 40.768 196.672 43.84 200.128C47.008 203.488 51.472 205.168 57.232 205.168C63.664 205.168 68.752 203.2 72.496 199.264C76.336 195.232 78.256 189.472 78.256 181.984V143.104H96.256ZM162.448 142.24C169.936 142.24 176.608 143.872 182.464 147.136C188.416 150.4 193.072 155.008 196.432 160.96C199.792 166.912 201.472 173.776 201.472 181.552C201.472 189.328 199.792 196.24 196.432 202.288C193.072 208.24 188.416 212.848 182.464 216.112C176.608 219.376 169.936 221.008 162.448 221.008C152.08 221.008 143.872 217.552 137.824 210.64V247.936H119.824V143.104H136.96V153.184C139.936 149.536 143.584 146.8 147.904 144.976C152.32 143.152 157.168 142.24 162.448 142.24ZM160.432 205.6C167.056 205.6 172.48 203.392 176.704 198.976C181.024 194.56 183.184 188.752 183.184 181.552C183.184 174.352 181.024 168.544 176.704 164.128C172.48 159.712 167.056 157.504 160.432 157.504C156.112 157.504 152.224 158.512 148.768 160.528C145.312 162.448 142.576 165.232 140.56 168.88C138.544 172.528 137.536 176.752 137.536 181.552C137.536 186.352 138.544 190.576 140.56 194.224C142.576 197.872 145.312 200.704 148.768 202.72C152.224 204.64 156.112 205.6 160.432 205.6Z" fill="#45B6ED"/>
<rect x="3" y="88" width="212" height="141" stroke="#45B6ED" stroke-width="6"/>
<path d="M96.976 63.104V140H79.84V130.064C76.864 133.712 73.168 136.448 68.752 138.272C64.432 140.096 59.632 141.008 54.352 141.008C46.864 141.008 40.144 139.376 34.192 136.112C28.336 132.848 23.728 128.24 20.368 122.288C17.104 116.336 15.472 109.424 15.472 101.552C15.472 93.68 17.104 86.816 20.368 80.96C23.728 75.008 28.336 70.4 34.192 67.136C40.144 63.872 46.864 62.24 54.352 62.24C59.344 62.24 63.904 63.104 68.032 64.832C72.256 66.56 75.904 69.104 78.976 72.464V63.104H96.976ZM56.368 125.6C62.992 125.6 68.464 123.392 72.784 118.976C77.104 114.56 79.264 108.752 79.264 101.552C79.264 94.352 77.104 88.544 72.784 84.128C68.464 79.712 62.992 77.504 56.368 77.504C49.744 77.504 44.272 79.712 39.952 84.128C35.728 88.544 33.616 94.352 33.616 101.552C33.616 108.752 35.728 114.56 39.952 118.976C44.272 123.392 49.744 125.6 56.368 125.6ZM120.527 63.104H138.527V140H120.527V63.104ZM129.599 50.432C126.335 50.432 123.599 49.424 121.391 47.408C119.183 45.296 118.079 42.704 118.079 39.632C118.079 36.56 119.183 34.016 121.391 32C123.599 29.888 126.335 28.832 129.599 28.832C132.863 28.832 135.599 29.84 137.807 31.856C140.015 33.776 141.119 36.224 141.119 39.2C141.119 42.368 140.015 45.056 137.807 47.264C135.695 49.376 132.959 50.432 129.599 50.432ZM237.464 33.152V140H220.184V130.064C217.208 133.712 213.512 136.448 209.096 138.272C204.776 140.096 199.976 141.008 194.696 141.008C187.304 141.008 180.632 139.376 174.68 136.112C168.824 132.848 164.216 128.24 160.856 122.288C157.496 116.24 155.816 109.328 155.816 101.552C155.816 93.776 157.496 86.912 160.856 80.96C164.216 75.008 168.824 70.4 174.68 67.136C180.632 63.872 187.304 62.24 194.696 62.24C199.784 62.24 204.44 63.104 208.664 64.832C212.888 66.56 216.488 69.152 219.464 72.608V33.152H237.464ZM196.856 125.6C201.176 125.6 205.064 124.64 208.52 122.72C211.976 120.704 214.712 117.872 216.728 114.224C218.744 110.576 219.752 106.352 219.752 101.552C219.752 96.752 218.744 92.528 216.728 88.88C214.712 85.232 211.976 82.448 208.52 80.528C205.064 78.512 201.176 77.504 196.856 77.504C192.536 77.504 188.648 78.512 185.192 80.528C181.736 82.448 179 85.232 176.984 88.88C174.968 92.528 173.96 96.752 173.96 101.552C173.96 106.352 174.968 110.576 176.984 114.224C179 117.872 181.736 120.704 185.192 122.72C188.648 124.64 192.536 125.6 196.856 125.6Z" fill="#45B6ED"/>
</svg>
